<svg xmlns="http://www.w3.org/2000/svg" width="19.119" height="18.36" viewBox="0 0 19.119 18.36">
  <g id="user" transform="translate(0 -9.714)">
    <g id="Group_4" data-name="Group 4" transform="translate(0 9.714)">
      <g id="Group_3" data-name="Group 3" transform="translate(0)">
        <path id="Path_3" data-name="Path 3" d="M9.558,21.773a5.036,5.036,0,0,0,1.363-.2c.441.887,1.77,2.227,5.684,3.211,1.148.293,1.219,1.738,1.16,2.574a.672.672,0,0,0,.621.715h.047a.67.67,0,0,0,.668-.621c.148-2.133-.641-3.578-2.172-3.969-3.574-.9-4.539-2.012-4.8-2.5a4.051,4.051,0,0,0,.7-.629c1.781-2.008,1.492-5.438,1.457-5.778-.207-4.453-3.7-4.848-4.762-4.863H9.444c-2.2.023-4.6,1.316-4.774,4.863-.035.34-.324,3.77,1.457,5.778a4.186,4.186,0,0,0,.809.707c-.316.508-1.363,1.574-4.75,2.422C.659,23.871-.134,25.32.018,27.449a.67.67,0,0,0,.668.621H.733a.672.672,0,0,0,.621-.715c-.059-.836.016-2.281,1.16-2.574,3.8-.953,5.176-2.254,5.656-3.172a5.144,5.144,0,0,0,1.231.164Zm-.1-1.34a2.993,2.993,0,0,1-2.328-.965C5.69,17.847,6,14.73,6,14.7c0-.016,0-.027,0-.043.141-3.1,2.223-3.59,3.453-3.6H9.5c1.227.016,3.309.508,3.449,3.6a.133.133,0,0,0,0,.039c0,.031.316,3.149-1.129,4.77a2.974,2.974,0,0,1-2.328.965H9.46v0Z" transform="translate(0 -9.714)" fill="#525252"/>
      </g>
    </g>
  </g>
</svg>
