<svg xmlns="http://www.w3.org/2000/svg" width="15.208" height="19" viewBox="0 0 15.208 19">
  <g id="shopping-bag_2_" data-name="shopping-bag (2)" transform="translate(-48.8)">
    <path id="Path_4" data-name="Path 4" d="M64,16.424,62.916,4.173A.524.524,0,0,0,62.4,3.7H60.157a3.754,3.754,0,0,0-7.507,0H50.412a.521.521,0,0,0-.521.478L48.8,16.424c0,.016,0,.031,0,.047A2.708,2.708,0,0,0,51.652,19h9.5a2.708,2.708,0,0,0,2.852-2.529A.189.189,0,0,0,64,16.424ZM56.4,1.049a2.707,2.707,0,0,1,2.7,2.646H53.7A2.707,2.707,0,0,1,56.4,1.049Zm4.752,16.9h-9.5a1.674,1.674,0,0,1-1.8-1.457L50.89,4.748h1.756V6.341a.525.525,0,0,0,1.049,0V4.748h5.412V6.341a.525.525,0,1,0,1.049,0V4.748h1.756l1.045,11.746A1.676,1.676,0,0,1,61.156,17.951Z" fill="#fff"/>
  </g>
</svg>
