<svg xmlns="http://www.w3.org/2000/svg" xmlns:xlink="http://www.w3.org/1999/xlink" width="86" height="86" viewBox="0 0 86 86">
  <defs>
    <filter id="Ellipse_451" x="0" y="0" width="86" height="86" filterUnits="userSpaceOnUse">
      <feOffset dy="3" input="SourceAlpha"/>
      <feGaussianBlur stdDeviation="3" result="blur"/>
      <feFlood flood-opacity="0.161"/>
      <feComposite operator="in" in2="blur"/>
      <feComposite in="SourceGraphic"/>
    </filter>
  </defs>
  <g id="Group_1357" data-name="Group 1357" transform="translate(-1230 -665)">
    <g transform="matrix(1, 0, 0, 1, 1230, 665)" filter="url(#Ellipse_451)">
      <circle id="Ellipse_451-2" data-name="Ellipse 451" cx="34" cy="34" r="34" transform="translate(9 6)" fill="#fff"/>
    </g>
    <path id="Path_2128" data-name="Path 2128" d="M55.832,26.5a18.813,18.813,0,0,0-29.6,22.695L23.56,58.937l9.971-2.616a18.789,18.789,0,0,0,8.988,2.289h.008A18.817,18.817,0,0,0,55.832,26.5ZM42.527,55.434h-.006a15.614,15.614,0,0,1-7.957-2.179l-.571-.339-5.917,1.552L29.655,48.7l-.372-.591a15.633,15.633,0,1,1,13.243,7.326ZM51.1,43.725c-.47-.235-2.781-1.372-3.212-1.529s-.744-.235-1.057.235-1.214,1.529-1.488,1.843-.548.353-1.018.118a12.837,12.837,0,0,1-3.78-2.333A14.178,14.178,0,0,1,37.933,38.8c-.274-.471,0-.7.206-.959a13.3,13.3,0,0,0,1.175-1.608.864.864,0,0,0-.039-.823c-.117-.235-1.057-2.548-1.449-3.49-.382-.916-.769-.792-1.058-.807s-.587-.016-.9-.016a1.726,1.726,0,0,0-1.253.588A5.271,5.271,0,0,0,32.97,35.61a9.143,9.143,0,0,0,1.919,4.862c.235.314,3.314,5.061,8.028,7.1a26.894,26.894,0,0,0,2.679.99,6.443,6.443,0,0,0,2.96.186c.9-.135,2.78-1.137,3.172-2.235A3.927,3.927,0,0,0,52,44.274C51.886,44.078,51.572,43.961,51.1,43.725Z" transform="translate(1230.551 665.042)" fill="#d8c7bd" fill-rule="evenodd"/>
  </g>
</svg>
