<svg xmlns="http://www.w3.org/2000/svg" width="13.962" height="13.962" viewBox="0 0 13.962 13.962">
  <path id="link" d="M8.312,14.273l-.707.7a1.583,1.583,0,0,1-2.221,0,1.539,1.539,0,0,1,0-2.185l2.6-2.578c.538-.535,1.552-1.322,2.292-.589A.865.865,0,1,0,11.5,8.4c-1.255-1.246-3.112-1.015-4.728.589l-2.6,2.58a3.265,3.265,0,0,0,0,4.639,3.313,3.313,0,0,0,4.657,0l.708-.7a.865.865,0,0,0-1.22-1.227ZM16.194,4.252A3.09,3.09,0,0,0,11.71,4.08l-.88.874a.864.864,0,1,0,1.218,1.227l.881-.874a1.4,1.4,0,0,1,2.047.172,1.537,1.537,0,0,1,0,2.184L12.2,10.416c-1.269,1.258-1.864.669-2.118.416a.865.865,0,1,0-1.218,1.227,2.732,2.732,0,0,0,1.944.864,3.813,3.813,0,0,0,2.612-1.28L16.2,8.891a3.267,3.267,0,0,0,0-4.639Z" transform="translate(-3.2 -3.197)" fill="#454545"/>
</svg>
